# Light path visualization generated by raytracing-cli
# Vertices
v -15 5 0
v 5.293499 -8.529 0
v -15 5 0
v 7.500002 -10.000001 3.7500002
v 67.50001 30 13.75
v -15 5 0
v 7.500002 -10 7.5
v 67.50001 30 27.5
v -15 5 0
v 5.3114357 -8.5409565 10.155718
v -15 5 0
v 15 -10 0
v 95 30 0
v -15 5 0
v 15 -10 5
v 95 30 18.333334
v -15 5 0
v 15 -10 10
v 95 30 36.66667
v -15 5 0
v 15.000002 -10.000001 15.000001
v 95 30 55
v -15 5 0
v 30 -10 0
v 150 30 0
v -15 5 0
v 30 -10 7.5
v 150 30 27.5
v -15 5 0
v 30 -10 15
v 150 30 55
v -15 5 0
v 29.999996 -10 22.499998
v 149.99998 30 82.5
v -15 5 0
v 75 -10 0
v 315 30 0
v -15 5 0
v -11.609636 4.4349394 0.5650607
v 12.207306 1.8393323 -17.722357
v 81.35456 29.999998 -649.0982
v -15 5 0
v 75 -10 30
v 315 30 110
v -15 5 0
v 75 -10 45
v 315 30 165

# Line segments
l 1 2
l 3 4
l 4 5
l 6 7
l 7 8
l 9 10
l 11 12
l 12 13
l 14 15
l 15 16
l 17 18
l 18 19
l 20 21
l 21 22
l 23 24
l 24 25
l 26 27
l 27 28
l 29 30
l 30 31
l 32 33
l 33 34
l 35 36
l 36 37
l 38 39
l 39 40
l 40 41
l 42 43
l 43 44
l 45 46
l 46 47
